<svg xmlns="http://www.w3.org/2000/svg" version="1.1" xmlns:xlink="http://www.w3.org/1999/xlink" width="512" height="512" x="0" y="0" viewBox="0 0 64 64" style="enable-background:new 0 0 512 512" xml:space="preserve" class=""><g transform="matrix(-8.450062914116731e-17,-1.379999999999999,-1.379999999999999,8.450062914116731e-17,76.1611222457885,76.16154697418207)"><path fill="#898585" d="M44.81 44.2a5.429 5.429 0 0 1 3.84 9.27c-.98.98-2.34 1.59-3.84 1.59H24.66c1.43 0 2.77 0 4.02-.01v-.07a4.177 4.177 0 0 1-4.11-4.18v-6.6z" opacity="1" data-original="#009ad3" class=""></path><path fill="#898585" d="M28.68 54.98v.07c-1.25.01-2.59.01-4.02.01h-.22c-.07 0-.15-.01-.22-.01-.32-.02-.63-.05-.94-.09-.18-.03-.37-.06-.56-.09-.18-.03-.36-.07-.54-.11s-.36-.09-.54-.14c-.17-.05-.35-.1-.52-.16-.13-.04-.26-.09-.39-.14-.1-.03-.2-.07-.3-.12-4.07-1.65-6.67-5.53-6.67-10.15V14.34c0-1.49.6-2.84 1.58-3.82s2.33-1.58 3.82-1.58c2.99 0 5.41 2.42 5.41 5.4V50.8c0 2.29 1.83 4.14 4.11 4.18z" opacity="1" data-original="#00faff" class=""></path></g></svg>